<svg width="101" height="38" viewBox="0 0 101 38" fill="none" xmlns="http://www.w3.org/2000/svg">
<path d="M4.94 29.976C3.952 29.6813 3.28467 29.3953 2.938 29.118C2.59133 28.858 2.418 28.494 2.418 28.026C2.418 27.506 2.53933 26.778 2.782 25.842C3.02467 24.8887 3.33667 23.8313 3.718 22.67C4.11667 21.5087 4.56733 20.2953 5.07 19.03C5.57267 17.7647 6.084 16.5513 6.604 15.39C7.124 14.2287 7.62667 13.1713 8.112 12.218C8.61467 11.2473 9.05667 10.4933 9.438 9.956L9.256 8.864C9.49867 8.864 9.83667 8.92467 10.27 9.046C10.7033 9.16733 11.1367 9.31467 11.57 9.488C12.0207 9.66133 12.4107 9.84333 12.74 10.034C13.0867 10.2073 13.2773 10.3547 13.312 10.476C13.2253 10.892 13.156 11.5247 13.104 12.374C13.052 13.206 13.026 14.0987 13.026 15.052C13.026 16.9413 13.0953 18.796 13.234 20.616C13.39 22.4187 13.7367 24.256 14.274 26.128C14.5513 24.7413 14.846 23.3633 15.158 21.994C15.4873 20.6073 15.8253 19.29 16.172 18.042C16.5187 16.7767 16.8653 15.6067 17.212 14.532C17.5587 13.4573 17.888 12.5213 18.2 11.724C18.5293 10.9093 18.8327 10.2767 19.11 9.826C19.3873 9.358 19.6387 9.10667 19.864 9.072C20.0547 9.10667 20.2627 9.18467 20.488 9.306C20.7133 9.41 20.93 9.54 21.138 9.696C21.346 9.852 21.5367 10.0253 21.71 10.216C21.8833 10.4067 22.022 10.5973 22.126 10.788C21.5713 11.0133 21.0167 11.542 20.462 12.374C19.9247 13.206 19.4047 14.22 18.902 15.416C18.4167 16.5947 17.9573 17.8773 17.524 19.264C17.108 20.6507 16.7353 22.02 16.406 23.372C16.094 24.7067 15.8427 25.946 15.652 27.09C15.4787 28.234 15.3833 29.1527 15.366 29.846C15.366 29.8807 15.3747 29.9067 15.392 29.924C15.34 29.9413 15.2793 29.95 15.21 29.95C15.158 29.95 15.106 29.95 15.054 29.95C14.2567 29.95 13.546 29.846 12.922 29.638C12.3153 29.4473 11.9167 29.17 11.726 28.806C11.362 27.35 11.0587 25.946 10.816 24.594C10.5733 23.242 10.3653 21.89 10.192 20.538C10.036 19.186 9.906 17.8253 9.802 16.456C9.71533 15.0693 9.646 13.622 9.594 12.114C9.26467 12.634 8.918 13.3187 8.554 14.168C8.19 15 7.83467 15.9187 7.488 16.924C7.14133 17.9293 6.80333 18.9867 6.474 20.096C6.162 21.2053 5.88467 22.2887 5.642 23.346C5.39933 24.4033 5.20867 25.4087 5.07 26.362C4.93133 27.298 4.862 28.1127 4.862 28.806C4.862 29.17 4.862 29.43 4.862 29.586C4.87933 29.742 4.90533 29.872 4.94 29.976ZM22.6525 28.91C21.6645 28.806 20.8758 28.3727 20.2865 27.61C19.6972 26.8473 19.4025 25.8767 19.4025 24.698C19.4025 24.0047 19.5065 23.2853 19.7145 22.54C19.9225 21.7947 20.2172 21.0753 20.5985 20.382C20.9798 19.6713 21.4305 19.004 21.9505 18.38C22.4705 17.756 23.0338 17.2187 23.6405 16.768C24.5938 16.0573 25.4865 15.702 26.3185 15.702C26.8732 15.9967 27.4192 16.612 27.9565 17.548C28.0432 17.548 28.1212 17.548 28.1905 17.548C28.2598 17.5307 28.3378 17.522 28.4245 17.522C29.3432 17.522 29.8025 18.3367 29.8025 19.966C29.8025 21.058 29.6205 22.098 29.2565 23.086C28.9098 24.0567 28.4158 24.9407 27.7745 25.738C27.1505 26.5353 26.3965 27.2113 25.5125 27.766C24.6458 28.3033 23.6925 28.6847 22.6525 28.91ZM23.9785 20.72C23.6838 21.1187 23.4065 21.552 23.1465 22.02C22.8865 22.488 22.6612 22.9647 22.4705 23.45C22.2798 23.918 22.1325 24.3773 22.0285 24.828C21.9245 25.2613 21.8725 25.6513 21.8725 25.998C21.8725 26.414 21.9418 26.8127 22.0805 27.194C22.2192 27.5753 22.3752 27.792 22.5485 27.844C23.3285 27.6707 24.0392 27.35 24.6805 26.882C25.3392 26.3967 25.9025 25.7987 26.3705 25.088C26.8558 24.3773 27.2285 23.5713 27.4885 22.67C27.7658 21.7687 27.9045 20.8067 27.9045 19.784C27.9045 19.3333 27.8785 18.978 27.8265 18.718C27.7745 18.458 27.6878 18.2327 27.5665 18.042C26.8038 18.2673 26.1192 18.6313 25.5125 19.134C24.9232 19.6367 24.4118 20.1653 23.9785 20.72ZM32.3412 18.042C32.2545 17.938 32.1765 17.7213 32.1072 17.392C32.0378 17.0453 32.0032 16.7507 32.0032 16.508C32.4538 16.5427 32.8872 16.5773 33.3032 16.612C33.7192 16.6293 34.1005 16.6467 34.4472 16.664C34.7072 16.144 34.9845 15.6327 35.2792 15.13C35.5912 14.61 35.8858 14.142 36.1632 13.726C36.4578 13.2927 36.7265 12.9287 36.9692 12.634C37.2292 12.3393 37.4285 12.1487 37.5672 12.062C37.7405 12.062 37.9572 12.0967 38.2172 12.166C38.4945 12.218 38.7718 12.296 39.0492 12.4C39.3265 12.4867 39.5778 12.582 39.8032 12.686C40.0285 12.79 40.1845 12.894 40.2712 12.998C39.7512 13.6567 39.3005 14.272 38.9192 14.844C38.5552 15.3987 38.1565 16.04 37.7232 16.768C38.0698 16.768 38.4165 16.7593 38.7632 16.742C39.1272 16.7247 39.4912 16.6987 39.8552 16.664C39.9418 16.7507 40.0112 16.8633 40.0632 17.002C40.1152 17.1233 40.1412 17.2533 40.1412 17.392C39.2918 17.704 38.2605 17.8773 37.0472 17.912C36.6138 18.744 36.2238 19.576 35.8772 20.408C35.5478 21.2227 35.2618 22.0113 35.0192 22.774C34.7938 23.5367 34.6118 24.256 34.4732 24.932C34.3518 25.608 34.2912 26.2147 34.2912 26.752C34.2912 27.5147 34.5772 27.9393 35.1492 28.026C35.6692 27.9567 36.1632 27.8267 36.6312 27.636C37.0992 27.4453 37.5152 27.2027 37.8792 26.908C37.9832 27.064 38.0438 27.194 38.0612 27.298C37.9572 27.454 37.7752 27.636 37.5152 27.844C37.2725 28.052 37.0038 28.2513 36.7092 28.442C36.4145 28.65 36.1285 28.8233 35.8512 28.962C35.5738 29.1007 35.3658 29.1787 35.2272 29.196C34.7938 29.1787 34.3605 29.0833 33.9272 28.91C33.4938 28.7367 33.0952 28.52 32.7312 28.26C32.3845 28 32.0985 27.714 31.8732 27.402C31.6478 27.0727 31.5352 26.752 31.5352 26.44C31.5352 26.024 31.5872 25.504 31.6912 24.88C31.8125 24.2387 31.9772 23.5453 32.1852 22.8C32.3932 22.0547 32.6358 21.2747 32.9132 20.46C33.1905 19.6453 33.4938 18.8393 33.8232 18.042H32.3412ZM48.9178 17.496C49.0911 17.496 49.2904 17.5307 49.5158 17.6C49.7584 17.652 49.9751 17.73 50.1658 17.834C50.3564 17.9207 50.5124 18.016 50.6338 18.12C50.7724 18.224 50.8418 18.3193 50.8418 18.406C50.4951 19.134 50.1744 19.8707 49.8798 20.616C49.5851 21.344 49.3338 22.046 49.1258 22.722C48.9178 23.398 48.7531 24.0307 48.6318 24.62C48.5278 25.2093 48.4758 25.7207 48.4758 26.154C48.4758 26.6393 48.5278 27.0467 48.6318 27.376C48.7358 27.688 48.9091 27.9133 49.1518 28.052C48.9438 28.1907 48.6751 28.3033 48.3458 28.39C48.0164 28.4767 47.7218 28.52 47.4618 28.52C46.5258 28.52 46.0578 27.8787 46.0578 26.596C46.0578 25.608 46.3871 24.256 47.0458 22.54C46.6991 23.3373 46.3004 24.0913 45.8498 24.802C45.3991 25.4953 44.9398 26.1107 44.4718 26.648C44.0038 27.1853 43.5271 27.6273 43.0418 27.974C42.5738 28.3033 42.1404 28.5027 41.7418 28.572C41.1004 28.5373 40.5804 28.234 40.1818 27.662C39.7831 27.0727 39.5838 26.3273 39.5838 25.426C39.5838 24.4553 39.7918 23.4327 40.2078 22.358C40.6238 21.2833 41.1524 20.2867 41.7938 19.368C42.4524 18.4493 43.1631 17.6867 43.9258 17.08C44.6884 16.456 45.4251 16.1267 46.1358 16.092C46.3091 16.144 46.4998 16.248 46.7078 16.404C46.9331 16.56 47.1411 16.742 47.3318 16.95C47.5398 17.158 47.7131 17.3747 47.8518 17.6C47.9904 17.808 48.0684 17.99 48.0858 18.146C47.3924 18.25 46.6731 18.588 45.9278 19.16C45.1998 19.732 44.5324 20.4253 43.9258 21.24C43.3364 22.0373 42.8511 22.8953 42.4698 23.814C42.0884 24.7327 41.8978 25.5907 41.8978 26.388C41.8978 26.7173 42.0191 26.9253 42.2618 27.012C42.7644 26.908 43.3451 26.4833 44.0038 25.738C44.6624 24.9753 45.4598 23.8053 46.3958 22.228C46.5691 21.916 46.7598 21.5693 46.9678 21.188C47.1931 20.8067 47.4184 20.408 47.6438 19.992C47.8691 19.576 48.0858 19.16 48.2938 18.744C48.5191 18.3107 48.7271 17.8947 48.9178 17.496ZM54.3495 28.182C55.1469 27.6447 55.9269 26.96 56.6895 26.128C57.4522 25.2787 58.1455 24.3687 58.7695 23.398C59.3935 22.41 59.9222 21.3873 60.3555 20.33C60.7889 19.2727 61.0835 18.2587 61.2395 17.288C61.2395 17.08 61.1269 16.9413 60.9015 16.872C60.6589 16.872 60.3209 17.0887 59.8875 17.522C59.4715 17.938 59.0035 18.4753 58.4835 19.134C57.9809 19.7927 57.4609 20.5293 56.9235 21.344C56.4035 22.1587 55.9269 22.9733 55.4935 23.788C55.0602 24.5853 54.6875 25.3393 54.3755 26.05C54.0809 26.7433 53.9162 27.3067 53.8815 27.74C53.7082 27.74 53.5609 27.5667 53.4395 27.22C53.4049 27.1333 53.3442 27.0467 53.2575 26.96C53.1709 26.856 53.0322 26.7347 52.8415 26.596C52.7549 26.5267 52.6682 26.4487 52.5815 26.362C52.4949 26.258 52.4342 26.1713 52.3995 26.102C52.3302 25.9633 52.2955 25.738 52.2955 25.426C52.2955 24.4033 52.4255 23.2507 52.6855 21.968C52.9455 20.6853 53.2835 19.3767 53.6995 18.042C54.1329 16.7073 54.6355 15.3987 55.2075 14.116C55.7795 12.816 56.3689 11.6287 56.9755 10.554C57.5995 9.47933 58.2235 8.56933 58.8475 7.824C59.4715 7.07867 60.0609 6.58466 60.6155 6.342C60.7889 6.394 60.9969 6.48067 61.2395 6.602C61.4822 6.72333 61.7249 6.862 61.9675 7.018C62.2102 7.174 62.4355 7.33 62.6435 7.486C62.8689 7.642 63.0335 7.78067 63.1375 7.902C61.2309 9.44467 59.5755 11.4293 58.1715 13.856C56.7849 16.2653 55.6495 19.1167 54.7655 22.41C55.2509 21.5087 55.7969 20.642 56.4035 19.81C57.0102 18.9607 57.6082 18.2153 58.1975 17.574C58.8042 16.9327 59.3762 16.4213 59.9135 16.04C60.4682 15.6587 60.9275 15.468 61.2915 15.468C61.5689 15.5373 61.8375 15.6587 62.0975 15.832C62.3575 16.0053 62.5915 16.222 62.7995 16.482C63.0075 16.7247 63.1809 16.9933 63.3195 17.288C63.4582 17.5653 63.5449 17.86 63.5795 18.172C63.5622 18.9 63.4322 19.68 63.1895 20.512C62.9642 21.3267 62.6522 22.1327 62.2535 22.93C61.8722 23.7273 61.4302 24.49 60.9275 25.218C60.4422 25.946 59.9222 26.5873 59.3675 27.142C58.8302 27.6793 58.2842 28.1127 57.7295 28.442C57.1922 28.7713 56.6809 28.936 56.1955 28.936C55.9875 28.936 55.7709 28.91 55.5455 28.858C55.3375 28.8233 55.1382 28.7627 54.9475 28.676C54.7742 28.6067 54.6269 28.5287 54.5055 28.442C54.4015 28.3553 54.3495 28.2687 54.3495 28.182ZM64.1952 26.336C64.1952 25.5733 64.3772 24.5073 64.7412 23.138C65.1052 21.7513 65.6166 20.1393 66.2752 18.302C67.3499 15.3727 68.3552 12.9373 69.2912 10.996C70.2446 9.03733 71.1719 7.512 72.0732 6.42C72.2812 6.45467 72.5326 6.54133 72.8272 6.68C73.1392 6.81867 73.4426 6.97467 73.7372 7.148C74.0319 7.304 74.2919 7.46867 74.5172 7.642C74.7599 7.81533 74.9159 7.954 74.9852 8.058C73.6332 9.65267 72.4459 11.3687 71.4232 13.206C70.4006 15.0433 69.4646 17.1493 68.6152 19.524C67.8872 21.5693 67.3326 23.4153 66.9512 25.062C66.5699 26.6913 66.3792 28.052 66.3792 29.144C66.3792 29.4387 66.3792 29.6207 66.3792 29.69C66.3792 29.7593 66.3879 29.8287 66.4052 29.898C66.1626 29.8633 65.9546 29.8027 65.7812 29.716C65.6079 29.6293 65.4952 29.5253 65.4432 29.404C65.4086 29.3173 65.3132 29.1873 65.1572 29.014C65.0012 28.858 64.8626 28.7367 64.7412 28.65C64.5852 28.546 64.4552 28.2773 64.3512 27.844C64.2472 27.3933 64.1952 26.8907 64.1952 26.336ZM79.5722 17.236C79.5029 18.3107 79.3122 19.238 79.0002 20.018C78.6882 20.7807 78.2375 21.4567 77.6482 22.046C77.0762 22.618 76.3742 23.138 75.5422 23.606C74.7102 24.074 73.7395 24.5247 72.6302 24.958C72.6302 25.062 72.6215 25.1747 72.6042 25.296C72.6042 25.4 72.6042 25.5127 72.6042 25.634C72.6042 25.8593 72.6215 26.0933 72.6562 26.336C72.6909 26.5787 72.7515 26.804 72.8382 27.012C72.9249 27.22 73.0462 27.3933 73.2022 27.532C73.3582 27.6533 73.5575 27.714 73.8002 27.714C74.2682 27.714 74.7275 27.61 75.1782 27.402C75.6289 27.194 76.0535 26.9427 76.4522 26.648C76.8682 26.336 77.2495 26.0067 77.5962 25.66C77.9602 25.296 78.2809 24.9667 78.5582 24.672C78.7315 24.828 78.8789 24.9753 79.0002 25.114C78.2202 26.154 77.3622 27.0207 76.4262 27.714C75.5075 28.39 74.6322 28.8233 73.8002 29.014C72.6042 28.8753 71.6682 28.442 70.9922 27.714C70.3335 26.9687 70.0042 26.076 70.0042 25.036C70.0042 24.3253 70.0995 23.606 70.2902 22.878C70.4982 22.1327 70.7755 21.422 71.1222 20.746C71.4862 20.0527 71.9022 19.4027 72.3702 18.796C72.8555 18.1893 73.3669 17.6607 73.9042 17.21C74.4589 16.7593 75.0222 16.404 75.5942 16.144C76.1835 15.884 76.7642 15.754 77.3362 15.754C78.1335 15.858 78.8789 16.352 79.5722 17.236ZM77.7782 18.094C77.3102 18.1633 76.8249 18.354 76.3222 18.666C75.8195 18.978 75.3429 19.394 74.8922 19.914C74.4589 20.434 74.0602 21.0407 73.6962 21.734C73.3322 22.4273 73.0462 23.1727 72.8382 23.97C74.2249 23.2767 75.3775 22.4273 76.2962 21.422C77.2149 20.3993 77.7089 19.29 77.7782 18.094Z" fill="black"/>
<g clip-path="url(#clip0_106_9)">
<path d="M96.625 1.87501C96.7892 1.71085 96.984 1.58064 97.1985 1.4918C97.413 1.40296 97.6429 1.35724 97.875 1.35724C98.1071 1.35724 98.337 1.40296 98.5515 1.4918C98.766 1.58064 98.9608 1.71085 99.125 1.87501C99.2892 2.03916 99.4194 2.23404 99.5082 2.44851C99.597 2.66299 99.6428 2.89286 99.6428 3.12501C99.6428 3.35715 99.597 3.58703 99.5082 3.8015C99.4194 4.01598 99.2892 4.21085 99.125 4.37501L90.6875 12.8125L87.25 13.75L88.1875 10.3125L96.625 1.87501Z" stroke="black" stroke-width="2" stroke-linecap="round" stroke-linejoin="round"/>
</g>
<defs>
<clipPath id="clip0_106_9">
<rect width="15" height="15" fill="black" transform="translate(86)"/>
</clipPath>
</defs>
</svg>
